HIERARCHY
ROOT Hips
{
	OFFSET 0.00000 0.00000 0.00000
	CHANNELS 6 Xposition Yposition Zposition Zrotation Yrotation Xrotation 
	JOINT LHipJoint
	{
		OFFSET 0 0 0
		CHANNELS 3 Zrotation Yrotation Xrotation
		JOINT LeftUpLeg
		{
			OFFSET 1.62329 -1.80800 0.67318
			CHANNELS 3 Zrotation Yrotation Xrotation
			JOINT LeftLeg
			{
				OFFSET 2.57139 -7.06484 0.00000
				CHANNELS 3 Zrotation Yrotation Xrotation
				JOINT LeftFoot
				{
					OFFSET 2.52017 -6.92413 0.00000
					CHANNELS 3 Zrotation Yrotation Xrotation
					JOINT LeftToeBase
					{
						OFFSET 0.23295 -0.64001 2.10214
						CHANNELS 3 Zrotation Yrotation Xrotation
						End Site
						{
							OFFSET 0.00000 -0.00000 1.10139
						}
					}
				}
			}
		}
	}
	JOINT RHipJoint
	{
		OFFSET 0 0 0
		CHANNELS 3 Zrotation Yrotation Xrotation
		JOINT RightUpLeg
		{
			OFFSET -1.48061 -1.80800 0.67318
			CHANNELS 3 Zrotation Yrotation Xrotation
			JOINT RightLeg
			{
				OFFSET -2.63258 -7.23296 0.00000
				CHANNELS 3 Zrotation Yrotation Xrotation
				JOINT RightFoot
				{
					OFFSET -2.54779 -7.00000 0.00000
					CHANNELS 3 Zrotation Yrotation Xrotation
					JOINT RightToeBase
					{
						OFFSET -0.23067 -0.63376 2.12161
						CHANNELS 3 Zrotation Yrotation Xrotation
						End Site
						{
							OFFSET -0.00000 -0.00000 1.11000
						}
					}
				}
			}
		}
	}
	JOINT LowerBack
	{
		OFFSET 0 0 0
		CHANNELS 3 Zrotation Yrotation Xrotation
		JOINT Spine
		{
			OFFSET -0.02108 2.07573 -0.16981
			CHANNELS 3 Zrotation Yrotation Xrotation
			JOINT Spine1
			{
				OFFSET 0.05070 2.08439 -0.03141
				CHANNELS 3 Zrotation Yrotation Xrotation
				JOINT Neck
				{
					OFFSET 0 0 0
					CHANNELS 3 Zrotation Yrotation Xrotation
					JOINT Neck1
					{
						OFFSET -0.10731 1.60408 0.31370
						CHANNELS 3 Zrotation Yrotation Xrotation
						JOINT Head
						{
							OFFSET 0.08411 1.65679 -0.30822
							CHANNELS 3 Zrotation Yrotation Xrotation
							End Site
							{
								OFFSET 0.03911 1.69149 -0.14146
							}
						}
					}
				}
				JOINT LeftShoulder
				{
					OFFSET 0 0 0
					CHANNELS 3 Zrotation Yrotation Xrotation
					JOINT LeftArm
					{
						OFFSET 3.52315 0.73219 -0.54694
						CHANNELS 3 Zrotation Yrotation Xrotation
						JOINT LeftForeArm
						{
							OFFSET 5.32462 -0.00000 -0.00000
							CHANNELS 3 Zrotation Yrotation Xrotation
							JOINT LeftHand
							{
								OFFSET 3.48402 -0.00000 -0.00000
								CHANNELS 3 Zrotation Yrotation Xrotation
								JOINT LeftFingerBase
								{
									OFFSET 0 0 0
									CHANNELS 3 Zrotation Yrotation Xrotation
									JOINT LeftHandIndex1
									{
										OFFSET 0.57248 -0.00000 -0.00000
										CHANNELS 3 Zrotation Yrotation Xrotation
										End Site
										{
											OFFSET 0.46154 -0.00000 -0.00000
										}
									}
								}
								JOINT LThumb
								{
									OFFSET 0 0 0
									CHANNELS 3 Zrotation Yrotation Xrotation
									End Site
									{
										OFFSET 0.46859 -0.00000 0.46859
									}
								}
							}
						}
					}
				}
				JOINT RightShoulder
				{
					OFFSET 0 0 0
					CHANNELS 3 Zrotation Yrotation Xrotation
					JOINT RightArm
					{
						OFFSET -3.41766 0.93592 -0.10019
						CHANNELS 3 Zrotation Yrotation Xrotation
						JOINT RightForeArm
						{
							OFFSET -5.33589 -0.00000 -0.00000
							CHANNELS 3 Zrotation Yrotation Xrotation
							JOINT RightHand
							{
								OFFSET -3.64134 -0.00000 -0.00000
								CHANNELS 3 Zrotation Yrotation Xrotation
								JOINT RightFingerBase
								{
									OFFSET 0 0 0
									CHANNELS 3 Zrotation Yrotation Xrotation
									JOINT RightHandIndex1
									{
										OFFSET -0.73481 -0.00000 -0.00000
										CHANNELS 3 Zrotation Yrotation Xrotation
										End Site
										{
											OFFSET -0.59242 -0.00000 -0.00000
										}
									}
								}
								JOINT RThumb
								{
									OFFSET 0 0 0
									CHANNELS 3 Zrotation Yrotation Xrotation
									End Site
									{
										OFFSET -0.60147 -0.00000 0.60147
									}
								}
							}
						}
					}
				}
			}
		}
	}
}
MOTION
Frames: 11
Frame Time: .0083333
4.579 17.3021 -5.5111 0 0 0 0 0 0 -21 0 0 0 0 0 0 0 0 0 0 0 0 0 0 21 0 0 0 0 0 0 0 0 0 0 0 0 0 0 0 0 0 0 0 0 0 0 -16 0 0 21 0 0 11 0 0 0 -8 0 0 0 0 0 0 0 0 0 0 0 0 0 0 0 0 0 0 0 0 8 0 0 0 0 0 0 0 0 0 0 0 0 0 0 0 0 0
4.5790 17.3021 -5.5111 3.1341 -11.7521 8.3887 0.0000 0.0000 0.0000 -20.0880 -5.1628 -15.6764 3.5021 11.4666 33.8701 1.5730 -4.0636 -22.7456 0.4195 -4.1572 -11.5194 0.0000 0.0000 0.0000 3.2650 11.5929 -29.7051 -5.4851 -13.9101 42.8784 -0.7600 5.5128 -15.5347 -0.0191 -0.8923 2.4524 -8.4840 -2.1214 6.4208 1.0424 -3.3636 1.3677 6.1002 -1.6549 -1.6230 -12.5141 -7.0420 -18.6066 6.2536 -7.6960 21.1797 3.1426 -3.8306 10.6357 0.0000 -0.0000 0.0000 -86.3443 -44.1708 35.8927 131.1017 -52.5414 -94.7030 -0.0000 -0.0000 1.9322 13.3041 9.7970 2.3041 -7.1250 0.0000 -0.0000 -11.9336 39.7632 1.5661 0.0000 -0.0000 0.0000 72.6034 40.6148 18.2299 -141.9079 46.8980 -102.9672 0.0000 0.0000 2.7227 -23.5161 23.0450 -9.6670 7.1250 -0.0000 -0.0000 3.4427 -5.1300 3.1268
4.5774 17.3030 -5.5104 3.1687 -11.7758 8.3907 0.0000 0.0000 0.0000 -20.1497 -5.1144 -15.6139 3.5111 11.4798 33.9156 1.5607 -3.9122 -22.6766 0.4904 -4.4900 -12.4595 0.0000 0.0000 0.0000 3.2701 11.4664 -29.7803 -5.4975 -13.9230 42.9300 -0.7528 5.4593 -15.4606 -0.0041 -0.4143 1.1385 -8.4771 -2.0961 6.4380 1.0038 -3.3327 1.3507 6.0554 -1.6372 -1.6584 -12.4047 -7.0069 -18.4820 6.2369 -7.6893 21.1145 3.1225 -3.8225 10.5818 -0.0000 -0.0000 0.0000 -86.3653 -44.0975 36.0062 131.0584 -52.5596 -94.6687 -0.0000 -0.0000 1.9579 13.3650 9.4878 2.2428 -7.1250 0.0000 -0.0000 -11.8169 39.4580 1.6405 -0.0000 -0.0000 0.0000 72.6626 40.5860 18.2557 -141.9015 46.9021 -102.9625 0.0000 0.0000 2.8016 -23.5734 23.0099 -9.6792 7.1250 -0.0000 -0.0000 3.4032 -5.1567 3.0891
4.5759 17.3027 -5.5060 3.2214 -11.7694 8.3963 0.0000 0.0000 0.0000 -20.2148 -5.1493 -15.5237 3.4858 11.4427 33.7879 1.5536 -3.8540 -22.6326 0.5208 -4.6249 -12.8417 0.0000 0.0000 0.0000 3.2299 11.2853 -29.8800 -5.5189 -13.9453 43.0188 -0.7392 5.4966 -15.3185 -0.0003 -0.1033 0.2838 -8.4504 -2.0809 6.4062 0.9769 -3.3083 1.3523 6.0088 -1.6256 -1.6463 -12.5081 -7.0295 -18.4057 6.3647 -7.7313 21.0698 3.1801 -3.8363 10.5659 -0.0000 -0.0000 0.0000 -86.4795 -44.0476 36.1562 130.9704 -52.5965 -94.5988 -0.0000 -0.0000 2.0518 13.4290 9.1909 2.1840 -7.1250 0.0000 -0.0000 -11.7016 39.1651 1.7097 -0.0000 -0.0000 0.0000 72.6686 40.5711 18.2462 -141.8276 46.9491 -102.9085 0.0000 0.0000 2.9422 -23.7835 23.1251 -9.8197 7.1250 -0.0000 -0.0000 3.2854 -4.9970 2.9918
4.5747 17.3004 -5.5008 3.2653 -11.7743 8.4506 0.0000 0.0000 0.0000 -20.2423 -5.3137 -15.5369 3.4649 11.4121 33.6827 1.5746 -3.8581 -22.7905 0.4923 -4.4989 -12.4846 0.0000 0.0000 0.0000 3.1563 11.1412 -30.0342 -5.5425 -13.9699 43.1169 -0.7226 5.6446 -15.1453 -0.0006 -0.1618 0.4445 -8.4198 -2.0589 6.3084 0.9632 -3.2681 1.3595 5.9694 -1.6084 -1.5934 -12.6061 -7.0768 -18.3974 6.4568 -7.7919 21.0445 3.2194 -3.8610 10.5702 -0.0000 -0.0000 0.0000 -86.6026 -44.0264 36.3454 130.9609 -52.6005 -94.5912 -0.0000 -0.0000 2.0882 13.5010 9.2038 2.1993 -7.1250 0.0000 -0.0000 -11.6429 39.1836 1.6955 -0.0000 -0.0000 0.0000 72.6201 40.5559 18.1324 -141.7760 46.9818 -102.8708 0.0000 0.0000 3.0478 -23.8008 23.2787 -9.8880 7.1250 -0.0000 -0.0000 3.2918 -4.8316 3.0079
4.5738 17.2991 -5.4972 3.2851 -11.7682 8.4791 0.0000 0.0000 0.0000 -20.2480 -5.4616 -15.4706 3.4390 11.3739 33.5514 1.5899 -3.8811 -22.9020 0.4534 -4.3197 -11.9778 0.0000 0.0000 0.0000 3.1163 10.9608 -30.1857 -5.5719 -14.0003 43.2385 -0.6962 5.8033 -14.8690 -0.0006 -0.1619 0.4448 -8.3814 -2.0452 6.3005 0.9418 -3.2476 1.3475 5.9240 -1.5971 -1.6083 -12.5891 -7.0868 -18.3750 6.4558 -7.8138 21.0448 3.2132 -3.8702 10.5676 0.0000 0.0000 0.0000 -86.6662 -43.9658 36.4651 130.9894 -52.5886 -94.6138 -0.0000 -0.0000 2.1285 13.3978 9.1359 2.1659 -7.1250 0.0000 -0.0000 -11.7169 39.1076 1.7289 0.0000 0.0000 0.0000 72.6848 40.5156 18.1408 -141.7803 46.9790 -102.8740 0.0000 0.0000 3.1251 -23.7166 23.2633 -9.8434 7.1250 -0.0000 -0.0000 3.3423 -4.8632 3.0522
4.5716 17.3002 -5.4960 3.3767 -11.7592 8.4822 0.0000 0.0000 0.0000 -20.3380 -5.4873 -15.4123 3.4163 11.3403 33.4364 1.5886 -3.8699 -22.8938 0.4546 -4.3252 -11.9933 0.0000 0.0000 0.0000 2.9968 10.8352 -30.3405 -5.6089 -14.0383 43.3912 -0.6711 5.8855 -14.6030 -0.0003 -0.1044 0.2867 -8.4597 -2.0356 6.3538 0.9305 -3.2463 1.3145 5.9601 -1.5922 -1.6690 -12.6059 -7.0682 -18.3786 6.4524 -7.7873 21.1582 3.2199 -3.8613 10.6076 0.0000 -0.0000 0.0000 -86.7447 -43.8511 36.5551 131.0692 -52.5551 -94.6773 -0.0000 -0.0000 2.0837 13.2730 9.0118 2.1161 -7.1250 0.0000 -0.0000 -11.7979 38.9736 1.7808 0.0000 -0.0000 0.0000 72.7262 40.4671 18.1941 -141.8340 46.9450 -102.9132 0.0000 0.0000 3.0795 -23.4625 23.1385 -9.6790 7.1250 -0.0000 -0.0000 3.4862 -5.0410 3.1724
4.5690 17.3022 -5.4947 3.4127 -11.7981 8.4926 0.0000 0.0000 0.0000 -20.3727 -5.4422 -15.3862 3.4008 11.3172 33.3574 1.5820 -3.8431 -22.8490 0.4661 -4.3792 -12.1459 0.0000 0.0000 0.0000 2.9223 10.7748 -30.5153 -5.6527 -14.0831 43.5713 -0.6497 5.9501 -14.3729 -0.0005 -0.1433 0.3936 -8.5006 -2.0140 6.3553 0.9319 -3.2199 1.3302 5.9827 -1.5801 -1.6553 -12.5158 -7.0171 -18.4666 6.4173 -7.7280 21.2914 3.2016 -3.8308 10.6605 -0.0000 -0.0000 0.0000 -86.8138 -43.8066 36.6426 131.1084 -52.5386 -94.7084 -0.0000 -0.0000 2.0404 13.2199 9.0448 2.1150 -7.1250 0.0000 -0.0000 -11.8496 39.0028 1.7802 -0.0000 -0.0000 0.0000 72.6865 40.4798 18.1822 -141.8844 46.9130 -102.9500 0.0000 0.0000 2.9549 -23.2825 23.0910 -9.5791 7.1250 -0.0000 -0.0000 3.5929 -5.1233 3.2643
4.5676 17.3027 -5.4951 3.3805 -11.8701 8.5346 0.0000 0.0000 0.0000 -20.3252 -5.3994 -15.4082 3.3907 11.3022 33.3058 1.5858 -3.8893 -22.8697 0.4682 -4.3889 -12.1735 0.0000 0.0000 0.0000 2.9040 10.6905 -30.7605 -5.7045 -14.1357 43.7838 -0.6183 6.0321 -14.0308 -0.0010 -0.2011 0.5525 -8.4406 -1.9964 6.3432 0.9180 -3.1900 1.3721 5.9305 -1.5687 -1.6138 -12.3746 -6.9721 -18.6123 6.4031 -7.6875 21.3697 3.1779 -3.8004 10.7046 -0.0000 -0.0000 0.0000 -86.7657 -43.8417 36.6312 131.1125 -52.5368 -94.7116 -0.0000 -0.0000 1.9965 13.0332 9.1537 2.1089 -7.1250 0.0000 -0.0000 -12.0303 39.0978 1.7797 -0.0000 -0.0000 0.0000 72.6974 40.5312 18.1824 -141.8801 46.9157 -102.9469 0.0000 0.0000 2.9120 -23.3212 23.1044 -9.6018 7.1250 -0.0000 -0.0000 3.5703 -5.1023 3.2451
4.5660 17.3043 -5.4966 3.3430 -11.9049 8.5719 0.0000 0.0000 0.0000 -20.2556 -5.4176 -15.4198 3.3838 11.2919 33.2708 1.5949 -3.9395 -22.9295 0.4780 -4.4337 -12.3002 0.0000 0.0000 0.0000 2.8901 10.5646 -31.0116 -5.7654 -14.1971 44.0329 -0.5796 6.2316 -13.6094 -0.0021 -0.2968 0.8156 -8.3658 -1.9717 6.4086 0.9031 -3.1581 1.3823 5.8739 -1.5516 -1.6500 -12.2785 -6.9522 -18.7606 6.4159 -7.6769 21.4690 3.1666 -3.7843 10.7637 -0.0000 -0.0000 0.0000 -86.7247 -43.8770 36.6487 131.0178 -52.5767 -94.6364 -0.0000 -0.0000 2.0264 12.9438 9.1281 2.0882 -7.1250 0.0000 -0.0000 -12.1009 39.0653 1.8003 -0.0000 -0.0000 0.0000 72.7030 40.5406 18.1295 -141.8082 46.9613 -102.8944 0.0000 0.0000 2.9771 -23.3604 23.1500 -9.6371 7.1250 -0.0000 -0.0000 3.5509 -5.0471 3.2311
4.5637 17.3057 -5.4986 3.3364 -11.9173 8.5765 0.0000 0.0000 0.0000 -20.2235 -5.3793 -15.3859 3.3773 11.2822 33.2376 1.5932 -3.9674 -22.9126 0.5082 -4.5698 -12.6856 0.0000 0.0000 0.0000 2.8402 10.4025 -31.2661 -5.8377 -14.2692 44.3270 -0.5300 6.4410 -13.0578 -0.0026 -0.3269 0.8982 -8.3567 -1.9419 6.5408 0.9186 -3.1303 1.3612 5.8909 -1.5324 -1.7501 -12.2254 -6.9069 -18.7726 6.3837 -7.6217 21.5160 3.1557 -3.7589 10.7734 0.0000 0.0000 0.0000 -86.7610 -43.8332 36.7258 130.9690 -52.5971 -94.5977 -0.0000 -0.0000 2.0164 12.9642 8.9100 2.0421 -7.1250 0.0000 -0.0000 -12.0391 38.8486 1.8561 0.0000 0.0000 0.0000 72.6428 40.4737 18.0858 -141.7857 46.9756 -102.8779 0.0000 0.0000 2.9524 -23.2783 23.1282 -9.5915 7.1250 -0.0000 -0.0000 3.5996 -5.0849 3.2730
